<svg width="734" height="178" viewBox="0 0 734 178" fill="none" xmlns="http://www.w3.org/2000/svg">
<path d="M112.983 89.1037L83.4048 47.3015H98.2329L120.787 80.2744L143.264 47.3015H157.936L128.357 89.1037L159.574 132.937H144.746L120.787 98.011L96.672 132.937H82L112.983 89.1037Z" fill="black"/>
<path d="M211.894 123.874C214.027 123.874 216.213 123.691 218.45 123.327C220.687 122.962 222.508 122.519 223.913 121.998V132.078C222.404 132.755 220.297 133.328 217.591 133.797C214.938 134.266 212.337 134.5 209.787 134.5C205.261 134.5 201.15 133.719 197.456 132.156C193.762 130.541 190.797 127.832 188.56 124.03C186.374 120.227 185.282 114.966 185.282 108.247V57.459H173.107V51.1301L185.36 46.0514L190.511 27.4553H198.315V47.3015H223.367V57.459H198.315V107.856C198.315 113.221 199.538 117.232 201.983 119.889C204.48 122.545 207.784 123.874 211.894 123.874Z" fill="black"/>
<path d="M288.095 45.7388C289.812 45.7388 291.607 45.843 293.48 46.0514C295.353 46.2076 297.018 46.442 298.475 46.7546L296.836 58.7873C295.431 58.4227 293.87 58.1362 292.153 57.9278C290.436 57.7195 288.824 57.6153 287.315 57.6153C283.881 57.6153 280.629 58.3185 277.559 59.725C274.542 61.0793 271.888 63.0587 269.599 65.6632C267.31 68.2156 265.515 71.3149 264.214 74.9612C262.913 78.5554 262.263 82.5664 262.263 86.994V132.937H249.23V47.3015H260L261.405 63.0848H261.951C263.72 59.9073 265.853 57.0163 268.35 54.4118C270.848 51.7552 273.735 49.6456 277.013 48.0829C280.343 46.5202 284.037 45.7388 288.095 45.7388Z" fill="black"/>
<path d="M354.619 45.8951C364.816 45.8951 372.387 48.187 377.329 52.771C382.272 57.3549 384.743 64.6735 384.743 74.7268V132.937H375.3L372.803 120.279H372.178C369.785 123.405 367.288 126.035 364.686 128.171C362.085 130.255 359.067 131.843 355.633 132.937C352.251 133.979 348.089 134.5 343.147 134.5C337.944 134.5 333.313 133.588 329.255 131.765C325.249 129.942 322.075 127.181 319.734 123.483C317.444 119.785 316.3 115.097 316.3 109.419C316.3 100.876 319.682 94.3126 326.445 89.7287C333.209 85.1448 343.511 82.6445 357.35 82.2278L372.1 81.6027V76.3677C372.1 68.9709 370.513 63.788 367.34 60.8188C364.166 57.8497 359.692 56.3652 353.916 56.3652C349.442 56.3652 345.176 57.0163 341.117 58.3185C337.059 59.6208 333.209 61.1574 329.567 62.9285L325.587 53.0835C329.437 51.1041 333.859 49.4112 338.854 48.0047C343.849 46.5983 349.104 45.8951 354.619 45.8951ZM371.944 90.7445L358.911 91.2914C348.245 91.7081 340.727 93.4532 336.357 96.5265C331.986 99.5998 329.801 103.949 329.801 109.575C329.801 114.471 331.284 118.092 334.25 120.436C337.215 122.78 341.143 123.952 346.034 123.952C353.63 123.952 359.848 121.842 364.686 117.623C369.525 113.404 371.944 107.075 371.944 98.6361V90.7445Z" fill="black"/>
<path d="M457.51 57.459H436.205V132.937H423.25V57.459H408.109V51.2083L423.25 46.9108V41.207C423.25 34.0186 424.316 28.1845 426.449 23.7048C428.582 19.173 431.678 15.8392 435.736 13.7035C439.795 11.5678 444.737 10.5 450.564 10.5C453.842 10.5 456.834 10.7865 459.539 11.3595C462.297 11.9325 464.716 12.5836 466.797 13.3129L463.442 23.5485C461.673 22.9755 459.669 22.4546 457.432 21.9858C455.247 21.4649 453.01 21.2045 450.721 21.2045C445.778 21.2045 442.11 22.8193 439.717 26.0488C437.375 29.2263 436.205 34.2269 436.205 41.0507V47.3015H457.51V57.459ZM486.23 132.937H473.197V11.3595H486.23V132.937Z" fill="black"/>
<path d="M595.287 89.9631C595.287 96.9953 594.376 103.272 592.555 108.794C590.734 114.315 588.107 118.977 584.673 122.78C581.239 126.582 577.077 129.499 572.186 131.531C567.348 133.51 561.859 134.5 555.719 134.5C549.996 134.5 544.741 133.51 539.955 131.531C535.22 129.499 531.11 126.582 527.624 122.78C524.19 118.977 521.511 114.315 519.585 108.794C517.712 103.272 516.776 96.9953 516.776 89.9631C516.776 80.587 518.363 72.6172 521.537 66.0539C524.71 59.4385 529.237 54.4118 535.116 50.9739C541.047 47.4838 548.097 45.7388 556.266 45.7388C564.07 45.7388 570.886 47.4838 576.713 50.9739C582.592 54.4639 587.144 59.5166 590.37 66.132C593.648 72.6953 595.287 80.639 595.287 89.9631ZM530.199 89.9631C530.199 96.839 531.11 102.803 532.931 107.856C534.752 112.909 537.561 116.815 541.359 119.576C545.157 122.337 550.048 123.717 556.031 123.717C561.963 123.717 566.827 122.337 570.625 119.576C574.476 116.815 577.311 112.909 579.132 107.856C580.953 102.803 581.864 96.839 581.864 89.9631C581.864 83.1394 580.953 77.2532 579.132 72.3047C577.311 67.304 574.502 63.4494 570.703 60.7407C566.905 58.032 561.989 56.6777 555.953 56.6777C547.057 56.6777 540.527 59.6208 536.365 65.5069C532.254 71.3931 530.199 79.5452 530.199 89.9631Z" fill="black"/>
<path d="M695.291 132.781L680.073 82.931C679.396 80.7953 678.746 78.7117 678.121 76.6802C677.549 74.5966 677.003 72.6172 676.483 70.742C676.014 68.8146 675.572 67.0436 675.156 65.4288C674.792 63.7619 674.479 62.3294 674.219 61.1314H673.673C673.465 62.3294 673.179 63.7619 672.815 65.4288C672.45 67.0436 672.008 68.8146 671.488 70.742C671.02 72.6693 670.499 74.7008 669.927 76.8365C669.355 78.9201 668.704 81.0297 667.976 83.1654L652.055 132.781H637.461L613.892 47.1452H627.316L639.646 94.4168C640.479 97.5422 641.259 100.642 641.988 103.715C642.768 106.736 643.418 109.601 643.939 112.31C644.511 114.966 644.927 117.284 645.187 119.264H645.812C646.124 117.961 646.462 116.399 646.826 114.576C647.243 112.752 647.685 110.825 648.153 108.794C648.673 106.71 649.22 104.652 649.792 102.621C650.364 100.537 650.937 98.584 651.509 96.7609L667.273 47.1452H681.243L696.461 96.6827C697.242 99.183 697.996 101.788 698.725 104.496C699.505 107.205 700.208 109.835 700.832 112.388C701.456 114.888 701.898 117.128 702.159 119.107H702.783C702.991 117.336 703.381 115.149 703.954 112.544C704.526 109.94 705.176 107.075 705.905 103.949C706.685 100.824 707.492 97.6464 708.324 94.4168L720.811 47.1452H734L710.353 132.781H695.291Z" fill="black"/>
<path d="M5 5H57L31 89M5 5V89M5 5L31 89M5 173H57L31 89M5 173V89M5 173L31 89M5 89H31" stroke="black" stroke-width="10"/>
</svg>
