<svg width="221" height="46" viewBox="0 0 221 46" fill="none" xmlns="http://www.w3.org/2000/svg">
<g clip-path="url(#clip0_1659_40430)">
<path fill-rule="evenodd" clip-rule="evenodd" d="M129.796 19.8848C132.69 19.8848 135.513 19.093 138.059 15.2418L135.264 13.6273C134.715 14.5941 133.921 15.3984 132.96 15.958C132 16.5176 130.908 16.8127 129.796 16.8131C126.233 16.8131 123.367 13.6828 123.367 9.9979C123.367 6.31302 126.304 3.09954 129.796 3.09954C131.728 3.09954 133.581 4.00227 135.43 6.3808L137.896 4.65544C137.059 3.24941 135.872 2.08443 134.45 1.27439C133.028 0.464336 131.42 0.0369291 129.784 0.0339355C124.578 0.0339355 120.251 4.60923 120.251 9.99174C120.251 15.3743 124.495 19.8941 129.784 19.8941L129.796 19.8848ZM60.6353 19.8971C61.3426 19.8958 62.0475 19.8163 62.7373 19.6598H70.153V16.585H67.6071C69.2361 14.7749 70.1374 12.4264 70.1376 9.99165C70.1376 4.52595 65.8811 0.0615757 60.6353 0.0615757C55.3894 0.0615757 51.1052 4.52595 51.1052 9.99165C51.1052 15.4574 55.3617 19.894 60.6353 19.894V19.8971ZM60.6353 3.13334C64.1428 3.13334 67.0369 6.21435 67.0369 10.004C67.0369 13.7936 64.1428 16.8931 60.6353 16.8931C57.1278 16.8931 54.209 13.7905 54.209 10.0071C54.209 6.22358 57.1031 3.13642 60.6353 3.13642V3.13334ZM25.0225 19.8971C30.3663 19.8963 34.6065 15.5432 34.6065 9.9948C34.6065 4.44591 30.3655 0.0647309 25.021 0.0647309C19.6765 0.0647309 15.4108 4.41818 15.4108 9.9948C15.4108 15.5709 19.6665 19.8963 25.0225 19.8971ZM19.02 7.34206L19.0817 7.19725C19.1711 6.98774 19.2605 6.78132 19.3683 6.58105C19.507 6.32129 19.6614 6.07023 19.8307 5.82928C19.8855 5.75284 19.9422 5.67819 19.9982 5.60436L19.9983 5.60426L19.9983 5.60424L19.9983 5.60419C20.0461 5.5412 20.0935 5.47882 20.1389 5.41643C20.2242 5.29912 20.3326 5.18873 20.4382 5.08127L20.4871 5.03131C20.6653 4.8553 20.8526 4.6887 21.0481 4.53219C21.1621 4.43975 21.2793 4.34732 21.4026 4.26106C21.5258 4.17479 21.683 4.07311 21.8279 3.98993C22.0547 3.86033 22.2894 3.74508 22.5306 3.64485C22.5965 3.6158 22.6624 3.5904 22.7267 3.56559C22.7647 3.55093 22.8022 3.53649 22.8388 3.52162C23.1395 3.40946 23.4487 3.32187 23.7635 3.25973L23.9022 3.23816C24.2641 3.17056 24.6313 3.1355 24.9994 3.13341H25.0272C28.3528 3.13341 31.022 5.64751 31.435 9.07666C31.435 9.11902 31.4434 9.16138 31.452 9.20448L31.452 9.2045L31.452 9.20456C31.4571 9.23041 31.4623 9.25653 31.4658 9.28309V9.30466C31.4843 9.52341 31.4966 9.74524 31.4966 9.97015V10.001C31.4966 13.8399 28.6302 16.8161 25.0241 16.8161C24.9347 16.8161 24.8515 16.8161 24.7652 16.7946C24.5661 16.7891 24.3675 16.7727 24.1703 16.7453L24.1702 16.7453C24.0285 16.7268 23.8867 16.7083 23.7481 16.6806C23.6286 16.6567 23.5046 16.6214 23.3819 16.5865L23.3227 16.5697C23.0419 16.4915 22.7669 16.3937 22.4998 16.277L22.4474 16.2523C20.939 15.5798 19.7448 14.3563 19.1094 12.8324C19.0073 12.596 18.9177 12.3543 18.8413 12.1084L18.8135 12.0406C18.3314 10.5002 18.4055 8.8395 19.0231 7.34822L19.02 7.34206ZM7.06739 19.8971C10.7413 19.8971 13.9129 16.8654 13.9129 13.3592V0.31425H6.67903V3.39525H10.8091V13.3654C10.8091 15.1739 9.01532 16.8716 7.06739 16.8716C4.92529 16.8716 3.08833 15.2171 3.08833 13.3654V10.4723H0V13.3654C0 16.9424 3.21469 19.9033 7.08897 19.9033L7.06739 19.8971ZM39.0387 13.9354L36.573 19.6661H33.1919L41.4706 0.320434H44.0041L52.5325 19.6661H49.2068L46.6332 13.9354H39.0387ZM45.2555 10.8636L42.7651 5.27161L40.3579 10.8636H45.2555ZM83.9889 0.31425H87.0926V12.0405C87.0531 14.1124 86.2119 16.0884 84.7458 17.5534C83.2797 19.0184 81.3027 19.8584 79.23 19.8971C74.9612 19.8971 71.3428 16.2677 71.3428 12.0405V0.31425H74.4434V12.0405C74.4806 13.2975 74.997 14.4927 75.8868 15.3816C76.7766 16.2705 77.9726 16.7859 79.23 16.8223C81.7635 16.8223 83.9889 14.5701 83.9889 12.0405V0.31425ZM92.2953 0.31425H89.1916V19.6198H92.2953V0.31425ZM102.787 11.677L109.272 0.31425H111.913V19.6198H108.813V7.47758L102.731 18.3813L97.501 8.42345V19.6198H94.3973V0.31425H96.9431L102.787 11.677ZM142.655 9.64972H151.377V0.305036H154.496V19.6075H151.377V12.7246H142.655V19.6075H139.551V0.305036H142.655V9.64972ZM166.498 0.301881H163.971L155.686 19.666H159.076L161.542 13.9353H169.14L171.713 19.666H175.039L166.498 0.301881ZM162.852 10.8451L165.259 5.25306L167.75 10.8451H162.852ZM174.247 0.305036L180.411 14.7118L186.881 0.305036H190.206L181.675 19.6507H179.144L170.866 0.305036H174.247ZM191.396 19.6075H205.099V16.5358H194.497V12.7246H203.222V9.64972H194.497V3.36447H205.099V0.305036H191.396V19.6075ZM218.078 6.76897C217.077 4.2672 215.517 3.195 213.735 3.12722C211.356 3.02863 209.689 4.15628 209.689 5.62899C209.689 6.70118 210.995 7.60391 214.349 8.45427C218.732 9.59424 220.581 11.1779 220.581 14.0987C220.581 17.4785 217.283 20.0943 213.236 19.8848C209.8 19.7061 207.167 17.7712 206.292 14.7549L209.158 13.3346C210.049 15.7686 211.495 16.7021 213.319 16.8254C215.616 16.964 217.465 15.6392 217.465 14.0987C217.465 12.8355 216.7 12.2223 213.514 11.4305C208.798 10.232 206.569 8.43887 206.569 5.62899C206.569 2.51718 209.396 -0.0739442 213.779 0.0523769C217.298 0.166374 220.066 2.34772 220.957 5.71218L218.078 6.76897Z" fill="white"/>
<path fill-rule="evenodd" clip-rule="evenodd" d="M43.7105 21.0291L45.643 23.2689L42.0554 26.2175L40.0921 23.8944L43.7105 21.0291ZM3.39346 31.5694C3.39346 32.6416 4.70029 33.5443 8.05369 34.3947C12.4396 35.5346 14.2889 37.1183 14.2889 40.0391C14.2889 43.4189 10.991 46.0347 6.94103 45.8252C3.50442 45.6465 0.875333 43.7116 0 40.6953L2.86642 39.275C3.75717 41.709 5.2027 42.6425 7.02425 42.7657C9.32355 42.9044 11.1728 41.5796 11.1728 40.0391C11.1728 38.7758 10.4054 38.1627 7.22152 37.3709C2.50273 36.1724 0.277402 34.3793 0.277402 31.5694C0.277402 28.4576 3.10066 25.8664 7.48349 25.9928C11.0033 26.1068 13.7742 28.2881 14.6649 31.6526L11.7831 32.7094C10.7814 30.2076 9.22491 29.1354 7.44342 29.0676C5.064 28.969 3.39346 30.0967 3.39346 31.5694ZM15.0661 45.6073L23.3479 26.2432L25.8906 26.2586L34.419 45.6073H31.0933L28.5197 39.8766H20.9222L18.4565 45.6073H15.0661ZM24.6423 31.1944L22.2352 36.7864H27.1328L24.6423 31.1944ZM47.6411 37.9695C47.6411 40.499 45.4158 42.7543 42.8823 42.7543C41.6243 42.7178 40.4279 42.202 39.538 41.3125C38.6481 40.4229 38.1321 39.227 38.0957 37.9695V26.2432H34.995V37.9695C34.995 42.1966 38.6104 45.826 42.8823 45.826C44.9549 45.7874 46.9319 44.9473 48.3981 43.4823C49.8642 42.0173 50.7054 40.0413 50.7449 37.9695V26.2432H47.6411V37.9695ZM59.6973 26.2432H53.1446V45.5487H59.6973C60.9552 45.5439 62.1997 45.2909 63.3595 44.8041C64.5193 44.3173 65.5715 43.6064 66.4558 42.7121C67.3401 41.8179 68.039 40.7578 68.5125 39.5929C68.986 38.428 69.2247 37.1811 69.215 35.9237C69.215 30.5966 64.9709 26.2432 59.6973 26.2432ZM59.6973 42.4739H56.2761V29.3026H59.6973C63.2603 29.3026 66.0989 32.2943 66.0989 35.9391C66.1103 36.789 65.9535 37.6328 65.6375 38.422C65.3215 39.2111 64.8525 39.93 64.2576 40.5373C63.6627 41.1446 62.9535 41.6284 62.1708 41.9607C61.3882 42.2931 60.5476 42.4675 59.6973 42.4739ZM84.4151 45.548H70.7087V26.2455H84.4151V29.3049H73.8124V35.5902H82.535V38.665H73.8124V42.4762H84.4151V45.548Z" fill="white"/>
<path d="M94.5479 40.0434C94.511 40.0438 94.4754 40.03 94.4484 40.0048C94.4246 39.9718 94.4111 39.9325 94.4097 39.8918V32.6935C94.4111 32.6529 94.4246 32.6135 94.4484 32.5805C94.4591 32.5642 94.474 32.551 94.4914 32.5423C94.5089 32.5336 94.5284 32.5296 94.5479 32.5308H97.7197C98.8086 32.4841 99.8747 32.8506 100.703 33.5564C101.087 33.8937 101.391 34.3118 101.593 34.7805C101.795 35.2492 101.889 35.7567 101.87 36.2665C101.87 37.4152 101.507 38.3277 100.781 39.0041C100.054 39.6795 99.0359 40.0048 97.739 40.0186L94.5479 40.0434ZM96.102 33.992V38.6429H97.7446C98.0723 38.6646 98.401 38.6204 98.7112 38.5128C99.0214 38.4053 99.3067 38.2368 99.5503 38.0171C99.7646 37.7883 99.9304 37.5188 100.038 37.2246C100.145 36.9304 100.192 36.6177 100.175 36.3051C100.189 35.9922 100.137 35.6799 100.02 35.389C99.9038 35.0981 99.7267 34.8352 99.5005 34.6178C99.0169 34.1828 98.3815 33.9542 97.7307 33.981L96.102 33.992Z" fill="white"/>
<path d="M107.44 36.9281V38.6291H111.864C111.906 38.6403 111.944 38.6622 111.974 38.6927C112.005 38.7232 112.027 38.7611 112.038 38.8028V39.878C112.038 39.8992 112.033 39.9201 112.025 39.9395C112.016 39.9589 112.004 39.9764 111.988 39.991C111.974 40.0069 111.957 40.0196 111.937 40.0281C111.918 40.0367 111.896 40.0409 111.875 40.0407H105.897C105.878 40.0415 105.86 40.0388 105.843 40.0326C105.826 40.0265 105.81 40.017 105.797 40.0048C105.774 39.9715 105.76 39.9324 105.758 39.8918V32.6797C105.76 32.6399 105.773 32.6015 105.797 32.5694C105.807 32.5526 105.822 32.5389 105.84 32.5297C105.857 32.5205 105.877 32.5161 105.897 32.5171H111.789C111.832 32.527 111.871 32.5489 111.902 32.5801C111.933 32.6114 111.954 32.6507 111.964 32.6935V33.7687C111.963 33.7899 111.959 33.8109 111.95 33.8304C111.942 33.8498 111.929 33.8673 111.914 33.8817C111.885 33.9159 111.845 33.9376 111.8 33.9424H107.464V35.467H111.424C111.446 35.4694 111.468 35.4762 111.487 35.4871C111.507 35.498 111.524 35.5127 111.538 35.5304C111.573 35.5582 111.596 35.5989 111.601 35.6434V36.7186C111.601 36.7394 111.596 36.7598 111.588 36.7788C111.579 36.7977 111.567 36.8148 111.551 36.8289C111.524 36.864 111.483 36.8868 111.438 36.8923L107.44 36.9281Z" fill="white"/>
<path d="M116.944 37.4795C117.002 37.4723 117.061 37.4878 117.107 37.5228C117.154 37.5577 117.186 37.6094 117.195 37.667C117.331 38.3562 117.948 38.7036 119.051 38.7036C119.502 38.7351 119.954 38.6395 120.353 38.4279C120.483 38.3589 120.593 38.2567 120.67 38.1317C120.747 38.0067 120.79 37.8634 120.793 37.7166C120.793 37.292 120.453 37.0411 119.789 36.9915L117.834 36.8289C117.205 36.8147 116.596 36.6045 116.092 36.2279C115.895 36.0641 115.738 35.8573 115.633 35.6236C115.529 35.3899 115.48 35.1354 115.489 34.8797C115.492 34.5372 115.573 34.1998 115.728 33.8938C115.882 33.5877 116.105 33.3214 116.38 33.1153C116.969 32.6273 117.795 32.3792 118.849 32.3792C119.903 32.3792 120.768 32.5915 121.318 33.0161C121.577 33.198 121.788 33.4397 121.932 33.7206C122.077 34.0015 122.151 34.3132 122.148 34.6289C122.148 34.7667 122.073 34.8411 121.91 34.8411H120.669C120.614 34.845 120.56 34.8276 120.518 34.7926C120.477 34.7576 120.45 34.7078 120.445 34.6537C120.345 34.0775 119.806 33.7908 118.841 33.7908C118.421 33.7665 118.002 33.8621 117.635 34.0664C117.506 34.1358 117.397 34.2382 117.32 34.3632C117.243 34.4881 117.201 34.6312 117.198 34.7777C117.198 35.1665 117.497 35.365 118.113 35.4173L120.049 35.58C120.879 35.6544 121.504 35.8777 121.905 36.2527C122.1 36.4295 122.255 36.646 122.359 36.8876C122.463 37.1293 122.513 37.3903 122.507 37.6532C122.504 37.9905 122.423 38.3224 122.27 38.6235C122.118 38.9246 121.898 39.1868 121.628 39.39C121.039 39.8918 120.187 40.1289 119.059 40.1289C117.931 40.1289 117.09 39.9166 116.452 39.4672C116.166 39.2941 115.929 39.0515 115.762 38.7623C115.596 38.473 115.506 38.1465 115.5 37.8131V37.7138C115.5 37.6844 115.506 37.6553 115.519 37.6289C115.532 37.6024 115.551 37.5796 115.575 37.5622C115.625 37.5248 115.686 37.5037 115.749 37.5016L116.944 37.4795Z" fill="white"/>
<path d="M126.586 40.0434C126.549 40.0438 126.514 40.03 126.487 40.0048C126.463 39.9718 126.449 39.9325 126.448 39.8918V32.6935C126.449 32.6529 126.463 32.6135 126.487 32.5805C126.497 32.5642 126.512 32.551 126.53 32.5423C126.547 32.5336 126.567 32.5296 126.586 32.5308H129.758C130.847 32.4841 131.913 32.8506 132.742 33.5564C133.125 33.8937 133.429 34.3118 133.631 34.7805C133.833 35.2492 133.928 35.7567 133.909 36.2665C133.931 36.7751 133.844 37.2826 133.653 37.7549C133.463 38.2271 133.172 38.6531 132.802 39.0041C132.075 39.6795 131.06 40.0048 129.761 40.0186L126.586 40.0434ZM128.129 33.992V38.6429H129.772C130.099 38.6646 130.428 38.6204 130.738 38.5128C131.049 38.4053 131.334 38.2368 131.577 38.0171C131.792 37.7883 131.958 37.5188 132.065 37.2246C132.172 36.9304 132.219 36.6177 132.202 36.3051C132.216 35.992 132.163 35.6796 132.046 35.3886C131.929 35.0977 131.752 34.8349 131.525 34.6178C131.043 34.1814 130.408 33.9525 129.758 33.981L128.129 33.992Z" fill="white"/>
<path d="M139.478 36.9281V38.6291H143.902C143.944 38.6403 143.982 38.6622 144.013 38.6927C144.043 38.7232 144.065 38.7611 144.076 38.8028V39.878C144.076 39.8992 144.071 39.9201 144.063 39.9395C144.054 39.9589 144.042 39.9764 144.027 39.991C144.012 40.0069 143.995 40.0196 143.975 40.0281C143.956 40.0367 143.935 40.0409 143.913 40.0407H137.935C137.917 40.0415 137.899 40.0388 137.881 40.0326C137.864 40.0265 137.849 40.017 137.835 40.0048C137.812 39.9715 137.798 39.9324 137.797 39.8918V32.6797C137.798 32.6399 137.812 32.6015 137.835 32.5694C137.846 32.5526 137.86 32.5389 137.878 32.5297C137.895 32.5205 137.915 32.5161 137.935 32.5171H143.828C143.87 32.527 143.909 32.5489 143.94 32.5801C143.971 32.6114 143.992 32.6507 144.002 32.6935V33.7687C144.002 33.7899 143.997 33.8109 143.989 33.8304C143.98 33.8498 143.968 33.8673 143.952 33.8817C143.924 33.9159 143.883 33.9376 143.839 33.9424H139.517V35.467H143.476C143.499 35.4694 143.52 35.4762 143.54 35.4871C143.559 35.498 143.576 35.5127 143.59 35.5304C143.625 35.5582 143.648 35.5989 143.653 35.6434V36.7186C143.653 36.7394 143.648 36.7598 143.64 36.7788C143.631 36.7977 143.619 36.8148 143.604 36.8289C143.576 36.864 143.535 36.8868 143.49 36.8923L139.478 36.9281Z" fill="white"/>
<path d="M156.592 39.8312C156.589 39.8541 156.581 39.8759 156.568 39.8951C156.555 39.9142 156.538 39.9301 156.517 39.9414C156.483 39.9749 156.44 39.9971 156.393 40.0048H155.063C155.016 39.9977 154.972 39.9754 154.938 39.9414C154.918 39.9302 154.9 39.9145 154.887 39.8953C154.873 39.8762 154.864 39.8542 154.861 39.8312V34.9542H154.836L153.509 35.9411C153.395 36.0294 153.321 36.0156 153.232 35.9163L152.591 35.0672C152.576 35.0265 152.567 34.9837 152.566 34.9404C152.564 34.9193 152.567 34.898 152.576 34.8786C152.585 34.8593 152.598 34.8426 152.616 34.8301L155.84 32.404H156.553L156.592 39.8312Z" fill="white"/>
<path d="M166.146 33.38C166.725 34.0416 167.013 34.967 167.012 36.1562C167.012 37.4161 166.71 38.392 166.096 39.0923C165.482 39.7925 164.642 40.1289 163.577 40.1289C162.676 40.1289 161.973 39.9304 161.459 39.5058C161.228 39.3387 161.039 39.1211 160.907 38.8696C160.774 38.6182 160.701 38.3398 160.693 38.0557C160.693 37.9427 160.756 37.8793 160.895 37.8793H162.192C162.242 37.8811 162.29 37.8994 162.328 37.9313C162.367 37.9632 162.394 38.007 162.405 38.0557C162.49 38.2631 162.644 38.4352 162.841 38.5437C163.08 38.6736 163.349 38.7383 163.621 38.7311C163.843 38.7373 164.063 38.6971 164.268 38.6131C164.473 38.529 164.657 38.403 164.81 38.2432C165.157 37.8322 165.332 37.3042 165.3 36.7682H165.264C164.899 37.2038 164.285 37.4161 163.419 37.4161C162.949 37.4238 162.481 37.3482 162.037 37.1928C161.682 37.0713 161.361 36.8704 161.097 36.6056C160.885 36.3908 160.718 36.1358 160.607 35.8557C160.507 35.5915 160.456 35.3111 160.458 35.0286C160.453 34.6702 160.527 34.3151 160.677 33.989C160.826 33.6629 161.046 33.3739 161.321 33.1429C161.971 32.6076 162.799 32.335 163.641 32.3792C164.747 32.3792 165.576 32.7045 166.16 33.3662L166.146 33.38ZM163.63 35.9797C164.036 36.0017 164.439 35.8966 164.783 35.6792C164.905 35.6035 165.007 35.4987 165.079 35.374C165.151 35.2494 165.191 35.1089 165.195 34.9652C165.195 34.8049 165.159 34.6466 165.087 34.5029C165.016 34.3593 164.911 34.2344 164.783 34.1381C164.453 33.8968 164.049 33.7778 163.641 33.8018C163.25 33.7769 162.864 33.8923 162.551 34.1271C162.431 34.2251 162.335 34.3489 162.27 34.4893C162.205 34.6297 162.172 34.783 162.175 34.9376C162.178 35.0791 162.213 35.218 162.279 35.3437C162.344 35.4694 162.437 35.5785 162.551 35.6627C162.865 35.8935 163.252 36.005 163.641 35.977L163.63 35.9797Z" fill="white"/>
<path d="M172.368 33.9672L172.18 35.4311H172.205C172.702 35.165 173.258 35.0275 173.822 35.0314C174.774 35.0314 175.481 35.2685 175.979 35.7454C176.213 35.965 176.398 36.2306 176.523 36.5253C176.648 36.82 176.711 37.1374 176.706 37.4574C176.715 37.8231 176.642 38.1861 176.493 38.5199C176.343 38.8538 176.12 39.1501 175.841 39.3873C175.263 39.889 174.5 40.1261 173.535 40.1261C172.813 40.1384 172.1 39.9667 171.464 39.6271C171.188 39.4933 170.946 39.3002 170.755 39.0619C170.564 38.8235 170.428 38.5457 170.357 38.2487C170.343 38.1658 170.335 38.0819 170.333 37.9978C170.333 37.9668 170.34 37.9362 170.354 37.9081C170.367 37.8801 170.386 37.8552 170.41 37.8351C170.433 37.8117 170.46 37.7931 170.49 37.7803C170.519 37.7675 170.552 37.7609 170.584 37.7607H171.812C171.861 37.7569 171.91 37.7694 171.951 37.7964C171.992 37.8233 172.023 37.8632 172.039 37.9096C172.152 38.1527 172.348 38.348 172.592 38.461C172.885 38.6167 173.214 38.6946 173.546 38.687C173.948 38.7155 174.345 38.5859 174.652 38.3259C174.765 38.2198 174.856 38.0917 174.918 37.9495C174.981 37.8073 175.013 37.654 175.014 37.4988C175.011 37.3576 174.98 37.2185 174.922 37.0896C174.864 36.9608 174.781 36.8449 174.677 36.7489C174.38 36.5001 173.996 36.3792 173.609 36.4126C173.143 36.4185 172.688 36.552 172.293 36.7986C172.188 36.8733 172.068 36.925 171.942 36.9502C171.8 36.9438 171.662 36.9011 171.541 36.8261L170.537 36.2747C170.49 36.2424 170.453 36.196 170.434 36.1421C170.414 36.0883 170.411 36.0296 170.427 35.9742L170.888 32.4978H175.891C175.913 32.5002 175.934 32.507 175.954 32.5179C175.973 32.5288 175.99 32.5435 176.004 32.5612C176.039 32.5891 176.062 32.6297 176.068 32.6742V33.7494C176.062 33.7938 176.039 33.8342 176.004 33.8624C175.976 33.8966 175.935 33.9183 175.891 33.9231L172.368 33.9672Z" fill="white"/>
<path d="M185.434 33.38C186.009 34.0416 186.297 34.9671 186.299 36.1562C186.299 37.4161 185.998 38.392 185.384 39.0923C184.77 39.7926 183.929 40.1289 182.862 40.1289C181.96 40.1289 181.258 39.9304 180.744 39.5058C180.514 39.3386 180.325 39.1208 180.193 38.8694C180.06 38.618 179.988 38.3396 179.981 38.0557C179.981 37.9427 180.041 37.8793 180.18 37.8793H181.471C181.521 37.8806 181.569 37.8988 181.608 37.9308C181.647 37.9628 181.673 38.0068 181.684 38.0557C181.77 38.264 181.925 38.4363 182.124 38.5437C182.361 38.6739 182.63 38.7386 182.901 38.7311C183.122 38.737 183.343 38.6967 183.548 38.6127C183.753 38.5286 183.939 38.4028 184.092 38.2432C184.437 37.8311 184.611 37.3037 184.579 36.7682H184.543C184.178 37.2038 183.564 37.4161 182.699 37.4161C182.228 37.4238 181.76 37.3482 181.316 37.1928C180.962 37.0707 180.641 36.8699 180.376 36.6056C180.166 36.3894 180 36.1348 179.887 35.8557C179.786 35.5915 179.735 35.3111 179.737 35.0286C179.732 34.6699 179.807 34.3146 179.957 33.9884C180.106 33.6622 180.327 33.3734 180.603 33.1429C181.252 32.6073 182.079 32.3346 182.92 32.3792C184.026 32.3792 184.856 32.7046 185.442 33.3662L185.434 33.38ZM182.909 35.9798C183.315 36.0021 183.719 35.897 184.062 35.6792C184.185 35.6037 184.287 35.4989 184.36 35.3743C184.432 35.2497 184.472 35.1091 184.477 34.9652C184.477 34.8047 184.44 34.6463 184.368 34.5027C184.296 34.3591 184.191 34.2343 184.062 34.1381C183.732 33.8968 183.328 33.7779 182.92 33.8018C182.53 33.7774 182.143 33.8928 181.83 34.1271C181.71 34.2251 181.614 34.3489 181.549 34.4893C181.484 34.6297 181.452 34.783 181.454 34.9376C181.457 35.0791 181.493 35.218 181.558 35.3437C181.623 35.4694 181.716 35.5785 181.83 35.6627C182.145 35.8931 182.531 36.0045 182.92 35.977L182.909 35.9798Z" fill="white"/>
</g>
<defs>
<clipPath id="clip0_1659_40430">
<rect width="221" height="45.8457" fill="white"/>
</clipPath>
</defs>
</svg>
