<?xml version="1.0" encoding="UTF-8"?>
<svg xmlns="http://www.w3.org/2000/svg" width="109" height="20" viewBox="0 0 109 20" fill="none">
  <path d="M24.4089 18.8483V5.172H27.5938V6.12767C27.9306 5.74101 28.37 5.43807 28.9102 5.21883C29.4503 5.0006 30.0482 4.89098 30.7039 4.89098C31.6157 4.89098 32.4349 5.09825 33.1633 5.51381C33.8908 5.92936 34.4658 6.52229 34.8873 7.2936C35.3088 8.06491 35.5191 8.98171 35.5191 10.043C35.5191 10.7804 35.3985 11.4611 35.1584 12.0849C34.9182 12.7097 34.5794 13.2548 34.1419 13.7192C33.7044 14.1846 33.1882 14.5463 32.5913 14.8054C31.9944 15.0645 31.3407 15.194 30.6292 15.194C30.1728 15.194 29.7363 15.1313 29.3177 15.0067C28.8992 14.8821 28.5056 14.6878 28.1379 14.4257V18.8473H24.4099L24.4089 18.8483ZM30.0113 12.0101C30.3671 12.0101 30.687 11.9304 30.972 11.771C31.256 11.6115 31.4792 11.3853 31.6416 11.0923C31.8041 10.7984 31.8848 10.4496 31.8848 10.043C31.8848 9.63643 31.8021 9.28764 31.6367 8.99367C31.4712 8.70069 31.246 8.47348 30.962 8.31504C30.678 8.15559 30.3611 8.07587 30.0113 8.07587C29.6615 8.07587 29.3446 8.15559 29.0606 8.31504C28.7766 8.47448 28.5514 8.70069 28.386 8.99367C28.2206 9.28764 28.1379 9.63742 28.1379 10.043C28.1379 10.4486 28.2186 10.7984 28.381 11.0923C28.5434 11.3863 28.7667 11.6125 29.0507 11.771C29.3347 11.9304 29.6546 12.0101 30.0113 12.0101Z" fill="black"></path>
  <path d="M39.8473 15.1959C39.2225 15.1959 38.6515 15.0713 38.1333 14.8212C37.6151 14.5721 37.1996 14.2113 36.8876 13.739C36.5757 13.2676 36.4193 12.6976 36.4193 12.0289C36.4193 11.448 36.5608 10.9397 36.8458 10.5023C37.1298 10.0648 37.5493 9.70803 38.1054 9.43C38.6615 9.15197 39.3501 8.96363 40.1712 8.86298C40.9923 8.76333 41.94 8.75635 43.0143 8.84405L43.0332 11.0733C42.6087 10.9796 42.2021 10.9218 41.8155 10.8999C41.4278 10.878 41.085 10.8949 40.785 10.9517C40.4851 11.0075 40.2479 11.1062 40.0735 11.2467C39.8981 11.3872 39.8114 11.5765 39.8114 11.8137C39.8114 12.0698 39.9141 12.2601 40.1204 12.3847C40.3266 12.5093 40.5947 12.572 40.9256 12.572C41.2255 12.572 41.4956 12.5222 41.7357 12.4226C41.9759 12.3229 42.1682 12.1685 42.3117 11.9592C42.4552 11.7499 42.527 11.4799 42.527 11.149V9.16294C42.527 8.86298 42.4672 8.59591 42.3486 8.36173C42.23 8.12755 42.0297 7.94319 41.7487 7.80866C41.4677 7.67413 41.077 7.60736 40.5778 7.60736C40.0785 7.60736 39.5832 7.6821 39.0929 7.83258C38.6027 7.98205 38.1732 8.19531 37.8044 8.46936L36.8866 5.97805C37.5364 5.58442 38.2389 5.28945 38.9943 5.09313C39.7497 4.89682 40.4961 4.79816 41.2335 4.79816C42.1642 4.79816 42.9943 4.94664 43.7248 5.24261C44.4552 5.53957 45.0312 6.00495 45.4528 6.63874C45.8743 7.27253 46.0846 8.09566 46.0846 9.10713V14.9149H42.8997V13.9592C42.5997 14.3528 42.1882 14.6568 41.663 14.873C41.1388 15.0883 40.5329 15.1959 39.8453 15.1959H39.8473Z" fill="black"></path>
  <path d="M49.5408 19.0922C49.0346 19.0922 48.5433 19.0433 48.065 18.9467C47.5877 18.85 47.1581 18.7045 46.7775 18.5112L47.5548 15.4011C47.761 15.5007 47.9922 15.5824 48.2483 15.6442C48.5045 15.707 48.7476 15.7379 48.9788 15.7379C49.2598 15.7379 49.5179 15.6861 49.7521 15.5834C49.9863 15.4808 50.1407 15.2944 50.2155 15.0264L50.2534 14.8769L46.5064 5.17273H50.5533L52.371 11.2994L54.1318 5.17273H58.085L54.1508 15.6083C53.807 16.4633 53.3964 17.146 52.9191 17.6552C52.4417 18.1644 51.9156 18.5311 51.3406 18.7554C50.7656 18.9806 50.1657 19.0922 49.5408 19.0922Z" fill="black"></path>
  <path d="M58.8154 14.914V5.172H62.5623V6.29608C62.7746 5.99612 63.0337 5.74201 63.3396 5.53274C63.6456 5.32347 63.9754 5.16403 64.3282 5.05541C64.6809 4.94579 65.0357 4.89098 65.3915 4.89098C66.0472 4.89098 66.6321 5.04245 67.1473 5.34539C67.6625 5.64834 68.0073 6.07186 68.1827 6.61497C68.5016 6.0589 68.9819 5.63339 69.6257 5.33642C70.2685 5.03946 70.975 4.89197 71.7423 4.89197C72.7099 4.89197 73.4663 5.07334 74.0094 5.43508C74.5525 5.79682 74.9352 6.26917 75.1564 6.84915C75.3776 7.43012 75.4892 8.05096 75.4892 8.71365V14.915H71.7423V9.78192C71.7423 9.31953 71.6237 8.95182 71.3866 8.67677C71.1494 8.40173 70.8116 8.26421 70.3751 8.26421C70.1 8.26421 69.8609 8.31902 69.6586 8.42864C69.4553 8.53826 69.2998 8.67977 69.1902 8.85515C69.0806 9.03054 69.0258 9.22088 69.0258 9.42616V14.915H65.2789V9.78192C65.2789 9.31953 65.1603 8.95182 64.9231 8.67677C64.6859 8.40173 64.3481 8.26421 63.9116 8.26421C63.6366 8.26421 63.3974 8.31902 63.1951 8.42864C62.9918 8.53826 62.8364 8.67977 62.7268 8.85515C62.6171 9.03054 62.5623 9.22088 62.5623 9.42616V14.915L58.8154 14.914Z" fill="black"></path>
  <path d="M82.1034 15.195C81.0172 15.195 80.0595 14.9609 79.2324 14.4925C78.4053 14.0241 77.7585 13.4003 77.2932 12.619C76.8278 11.8387 76.5956 10.9797 76.5956 10.043C76.5956 9.36836 76.7281 8.72261 76.9942 8.10377C77.2593 7.48593 77.637 6.93585 78.1272 6.45552C78.6175 5.9742 79.1995 5.59353 79.8742 5.31251C80.5488 5.03149 81.2912 4.89098 82.1034 4.89098C83.1896 4.89098 84.1472 5.12516 84.9744 5.59353C85.8015 6.06189 86.4482 6.68671 86.9136 7.46699C87.379 8.24727 87.6112 9.10628 87.6112 10.043C87.6112 10.7177 87.4786 11.3634 87.2135 11.9822C86.9485 12.6001 86.5698 13.1502 86.0805 13.6305C85.5902 14.1118 85.0092 14.4925 84.3386 14.7735C83.6669 15.0545 82.9215 15.195 82.1034 15.195ZM82.1034 12.0101C82.4532 12.0101 82.7701 11.9304 83.0541 11.771C83.3381 11.6115 83.5633 11.3853 83.7287 11.0923C83.8941 10.7984 83.9768 10.4496 83.9768 10.043C83.9768 9.63643 83.8951 9.28764 83.7337 8.99367C83.5713 8.70069 83.348 8.47348 83.064 8.31504C82.78 8.15559 82.4601 8.07587 82.1034 8.07587C81.7466 8.07587 81.4277 8.15559 81.1427 8.31504C80.8587 8.47448 80.6355 8.70069 80.4731 8.99367C80.3106 9.28764 80.2299 9.63742 80.2299 10.043C80.2299 10.4486 80.3126 10.7984 80.478 11.0923C80.6435 11.3863 80.8687 11.6125 81.1527 11.771C81.4367 11.9304 81.7536 12.0101 82.1034 12.0101Z" fill="black"></path>
  <path d="M90.5506 14.9148L87.2342 5.17273H91.2242L92.9104 11.6741H92.5546L94.1849 5.17273H98.0813L94.9343 14.9148H90.5506Z" fill="black"></path>
  <path d="M103.535 15.195C102.442 15.195 101.486 14.9798 100.669 14.5483C99.8507 14.1178 99.2149 13.5149 98.7625 12.7406C98.31 11.9663 98.0838 11.0605 98.0838 10.0241C98.0838 9.26871 98.2164 8.57712 98.4824 7.94931C98.7475 7.3215 99.1222 6.78039 99.6065 6.32398C100.091 5.86857 100.662 5.5158 101.321 5.26567C101.979 5.01554 102.706 4.89098 103.498 4.89098C104.385 4.89098 105.173 5.04743 105.864 5.35934C106.553 5.67126 107.123 6.10674 107.573 6.66579C108.022 7.22484 108.328 7.88055 108.491 8.63293C108.653 9.3853 108.643 10.2054 108.463 11.0923H101.437C101.462 11.3485 101.57 11.5737 101.76 11.767C101.95 11.9603 102.205 12.1118 102.523 12.2214C102.842 12.331 103.204 12.3858 103.61 12.3858C104.202 12.3858 104.756 12.3171 105.268 12.1796C105.78 12.042 106.289 11.8238 106.794 11.5238L107.881 13.9972C107.594 14.2155 107.203 14.4158 106.71 14.5971C106.216 14.7785 105.688 14.923 105.126 15.0326C104.564 15.1422 104.033 15.197 103.534 15.197L103.535 15.195ZM101.68 8.65684H104.94C104.94 8.32002 104.796 8.04498 104.509 7.83272C104.222 7.62046 103.848 7.51383 103.385 7.51383C102.923 7.51383 102.515 7.62046 102.2 7.83272C101.885 8.04498 101.712 8.32002 101.68 8.65684Z" fill="black"></path>
  <path d="M15.6403 0.512238H4.47926C2.27794 0.512238 0.493164 2.29701 0.493164 4.49834V15.6594C0.493164 17.8607 2.27794 19.6455 4.47926 19.6455H15.6403C17.8417 19.6455 19.6264 17.8607 19.6264 15.6594V4.49834C19.6264 2.29701 17.8417 0.512238 15.6403 0.512238ZM12.7664 10.0809C12.1395 10.0819 11.6204 10.5662 11.5755 11.192L11.3692 14.0769C11.2058 16.3709 8.45739 17.1672 6.97157 15.1004C5.59039 13.1771 3.68204 10.0829 3.68204 10.0829L7.35324 10.0769C7.98005 10.0759 8.49924 9.59157 8.54409 8.96575L8.75036 6.08082C8.91379 3.78682 11.6622 2.99059 13.148 5.05739C14.5292 6.98068 16.4376 10.0749 16.4376 10.0749L12.7664 10.0809Z" fill="#121215"></path>
</svg>
